HIERARCHY
ROOT Hips
{
	OFFSET 0.000000 0.000000 0.000000
	CHANNELS 6 Xposition Yposition Zposition Xrotation Yrotation Zrotation
	JOINT LeftUpLeg_virtual
	{
		OFFSET 0.000000 0.000000 0.000000
		CHANNELS 3 Xrotation Yrotation Zrotation
		JOINT LeftUpLeg
		{
			OFFSET 10.205400 -3.823500 0.155100
			CHANNELS 3 Xrotation Yrotation Zrotation
			JOINT LeftLeg
			{
				OFFSET 0.708757 -12.982077 0.567790
				CHANNELS 3 Xrotation Yrotation Zrotation
				JOINT LeftFoot
				{
					OFFSET -0.708756 -10.717838 -2.184338
					CHANNELS 3 Xrotation Yrotation Zrotation
					JOINT LeftToeBase
					{
						OFFSET 0.108149 -7.191104 7.560241
						CHANNELS 3 Xrotation Yrotation Zrotation
						JOINT LeftToe_End
						{
							OFFSET 0.070230 0.081724 4.490308
							CHANNELS 3 Xrotation Yrotation Zrotation
							End Site
							{
								OFFSET 0 0 0
							}
						}
					}
				}
			}
		}
	}
	JOINT RightUpLeg_virtual
	{
		OFFSET 0.000000 0.000000 0.000000
		CHANNELS 3 Xrotation Yrotation Zrotation
		JOINT RightUpLeg
		{
			OFFSET -10.205400 -3.823500 0.005500
			CHANNELS 3 Xrotation Yrotation Zrotation
			JOINT RightLeg
			{
				OFFSET -0.708756 -12.982134 0.610632
				CHANNELS 3 Xrotation Yrotation Zrotation
				JOINT RightFoot
				{
					OFFSET 0.708754 -10.717769 -1.945823
					CHANNELS 3 Xrotation Yrotation Zrotation
					JOINT RightToeBase
					{
						OFFSET -0.108140 -7.191069 7.372968
						CHANNELS 3 Xrotation Yrotation Zrotation
						JOINT RightToe_End
						{
							OFFSET -0.070227 0.081735 4.479403
							CHANNELS 3 Xrotation Yrotation Zrotation
							End Site
							{
								OFFSET 0 0 0
							}
						}
					}
				}
			}
		}
	}
	JOINT Spine_virtual
	{
		OFFSET 0.000000 0.000000 0.000000
		CHANNELS 3 Xrotation Yrotation Zrotation
		JOINT Spine
		{
			OFFSET 0.000000 6.876099 0.125700
			CHANNELS 3 Xrotation Yrotation Zrotation
			JOINT Spine1
			{
				OFFSET 0.000000 5.730043 0.104720
				CHANNELS 3 Xrotation Yrotation Zrotation
				JOINT Spine1_split
				{
					OFFSET 0.000000 5.730043 0.104720
					CHANNELS 3 Xrotation Yrotation Zrotation
					JOINT Spine2
					{
						OFFSET 0.000000 5.730043 0.104720
						CHANNELS 3 Xrotation Yrotation Zrotation
						JOINT Neck_virtual
						{
							OFFSET 0.000000 0.000000 0.000000
							CHANNELS 3 Xrotation Yrotation Zrotation
							JOINT Neck
							{
								OFFSET 0.000000 10.314075 0.188496
								CHANNELS 3 Xrotation Yrotation Zrotation
								JOINT Head
								{
									OFFSET 0.000000 7.643700 -2.377400
									CHANNELS 3 Xrotation Yrotation Zrotation
									JOINT HeadTop_End
									{
										OFFSET 0.000000 43.788605 -13.619600
										CHANNELS 3 Xrotation Yrotation Zrotation
										End Site
										{
											OFFSET 0 0 0
										}
									}
								}
							}
						}
						JOINT LeftShoulder_virtual
						{
							OFFSET 0.000000 0.000000 0.000000
							CHANNELS 3 Xrotation Yrotation Zrotation
							JOINT LeftShoulder
							{
								OFFSET 2.196100 4.412489 0.087492
								CHANNELS 3 Xrotation Yrotation Zrotation
								JOINT LeftShoulder_split
								{
									OFFSET 2.196100 4.412489 0.087492
									CHANNELS 3 Xrotation Yrotation Zrotation
									JOINT LeftArm
									{
										OFFSET 8.771219 -2.981674 -0.026999
										CHANNELS 3 Xrotation Yrotation Zrotation
										JOINT LeftForeArm
										{
											OFFSET 8.512804 0.000000 -0.000000
											CHANNELS 3 Xrotation Yrotation Zrotation
											JOINT LeftHand
											{
												OFFSET 18.484802 0.000000 -0.000000
												CHANNELS 3 Xrotation Yrotation Zrotation
												End Site
												{
													OFFSET 0 0 0
												}
											}
										}
									}
								}
							}
						}
						JOINT RightShoulder_virtual
						{
							OFFSET 0.000000 0.000000 0.000000
							CHANNELS 3 Xrotation Yrotation Zrotation
							JOINT RightShoulder
							{
								OFFSET -2.196100 4.412496 0.070690
								CHANNELS 3 Xrotation Yrotation Zrotation
								JOINT RightShoulder_split
								{
									OFFSET -2.196100 4.412496 0.070690
									CHANNELS 3 Xrotation Yrotation Zrotation
									JOINT RightArm
									{
										OFFSET -8.771282 -2.981682 -0.094208
										CHANNELS 3 Xrotation Yrotation Zrotation
										JOINT RightForeArm
										{
											OFFSET -8.494598 0.000000 0.000000
											CHANNELS 3 Xrotation Yrotation Zrotation
											JOINT RightHand
											{
												OFFSET -18.483803 0.000000 0.000001
												CHANNELS 3 Xrotation Yrotation Zrotation
												End Site
												{
													OFFSET 0 0 0
												}
											}
										}
									}
								}
							}
						}
					}
				}
			}
		}
	}
}
MOTION
Frames: 11
Frame Time: 0.03333333
0.083959 35.827782 -1.716064 0.000000 0.000000 0.000000 -87.532665 -4.927009 -1.815048 10.057181 23.449429 16.357601 -1.852600 4.392758 3.407208 19.034554 30.647230 -33.255330 -5.290931 -0.123836 0.495372 0.000000 0.000000 0.000000 -90.180579 -1.486567 0.464409 18.889385 -22.517954 -13.373914 -3.986200 -0.180700 -6.025369 29.234975 -34.473693 34.382602 -12.664906 1.190814 -2.094686 0.000000 0.000000 0.000000 -88.360245 -6.008925 -3.517808 2.388927 -1.543263 0.685930 -2.629183 -1.195530 0.537308 1.206362 2.527276 -0.277626 0.000000 0.000000 0.000000 -2.416319 -1.678258 0.412888 -11.330648 -2.259360 -1.447768 15.168018 -0.040978 3.195383 0.000000 0.000000 0.000000 -0.489287 -1.604680 0.751586 0.755076 1.305724 -5.609675 -1.247126 0.529668 -2.808335 37.894105 -28.488629 -54.941714 -154.473908 -88.550035 -153.468518 0.000000 0.000000 0.000000 -0.427191 -1.203193 0.223318 0.620546 -2.705277 13.777125 2.662622 4.631334 -0.476637 28.020122 24.471784 47.277057 178.756077 79.165895 -179.898577 0.000000 0.000000 0.000000 
0.001233 35.879536 -1.502504 0.000000 0.000000 0.000000 -87.410152 -4.592936 -1.642160 9.580962 23.605001 16.683907 -1.928519 4.418697 3.275513 19.248786 30.308678 -33.628904 -5.330608 -0.139531 0.530884 0.000000 0.000000 0.000000 -89.647169 -1.228368 0.521043 19.026834 -22.043560 -13.486118 -4.262423 -0.266149 -5.998422 29.851772 -34.522313 34.617499 -12.538961 1.203147 -2.048923 0.000000 0.000000 0.000000 -88.117309 -6.047271 -3.695308 2.110947 -1.655276 0.678713 -2.718523 -1.262992 0.433829 0.997472 2.133973 -0.391501 0.000000 0.000000 0.000000 -2.541005 -1.707152 0.329549 -11.354125 -2.114851 -1.447554 15.343707 -0.189722 2.987126 0.000000 0.000000 0.000000 -0.485060 -1.657794 0.663923 0.791461 0.735922 -5.307978 -0.714739 0.378777 -2.469942 37.672240 -28.742635 -54.989337 -140.165030 -88.687609 -139.066408 0.000000 0.000000 0.000000 -0.485312 -1.234422 0.135144 0.652358 -3.057456 13.749902 2.522352 4.408162 0.417317 26.912506 25.272460 48.498113 -179.753531 79.970416 178.526815 0.000000 0.000000 0.000000 
-0.042184 35.941612 -1.354397 0.000000 0.000000 0.000000 -87.144942 -4.618080 -1.706330 9.260917 23.523837 17.023207 -1.925904 4.514033 3.163926 19.233567 30.113341 -33.505647 -5.305876 -0.145841 0.513905 0.000000 0.000000 0.000000 -88.988247 -1.173157 0.465525 18.737372 -21.718866 -13.494465 -4.543436 -0.373077 -5.985014 30.897915 -34.450040 35.137498 -12.713168 1.268059 -2.057303 0.000000 0.000000 0.000000 -87.744742 -6.184502 -3.896528 1.848538 -1.747332 0.737919 -2.850362 -1.341332 0.246676 0.758753 1.781084 -0.433744 0.000000 0.000000 0.000000 -2.598438 -1.772744 0.189948 -11.461483 -2.070523 -1.279135 15.354807 -0.461448 2.931467 0.000000 0.000000 0.000000 -0.604403 -1.704037 0.496841 0.851002 -0.185644 -4.747827 -0.422045 0.908247 -2.586696 38.199933 -29.349009 -54.130888 -136.260389 -88.839888 -135.136618 0.000000 0.000000 0.000000 -0.582744 -1.280417 -0.002088 0.701917 -3.647346 13.687515 2.326404 4.065828 0.822409 23.667563 25.692967 51.878405 -178.678158 81.430144 177.343731 0.000000 0.000000 0.000000 
-0.036305 35.978821 -1.272741 0.000000 0.000000 0.000000 -86.791132 -5.020607 -1.977613 9.124668 23.077838 17.203588 -1.771566 4.588233 3.154245 18.962910 30.133620 -32.927164 -5.170098 -0.139149 0.409906 0.000000 0.000000 0.000000 -88.401567 -1.331569 0.385305 18.012739 -21.593643 -13.463565 -4.724120 -0.528138 -6.036023 31.866473 -34.430632 35.619474 -12.963695 1.350433 -2.086576 0.000000 0.000000 0.000000 -87.312685 -6.417192 -4.036430 1.643069 -1.807303 0.806496 -2.989926 -1.394847 0.028007 0.475746 1.611453 -0.399232 0.000000 0.000000 0.000000 -2.579827 -1.840529 0.025499 -11.570316 -2.109817 -1.049814 15.268533 -0.799065 2.945369 0.000000 0.000000 0.000000 -0.837413 -1.726059 0.293645 0.925758 -1.282555 -4.144624 -0.401808 1.954956 -3.137723 39.224871 -30.025884 -52.626273 -140.604034 -89.065394 -139.502161 0.000000 0.000000 0.000000 -0.723803 -1.313647 -0.147042 0.794817 -4.344712 13.664771 2.203639 3.756669 0.614419 18.693101 25.252859 56.770555 -177.958735 83.582439 176.521840 0.000000 0.000000 0.000000 
0.028347 35.982307 -1.236576 0.000000 0.000000 0.000000 -86.418866 -5.665619 -2.262620 9.168253 22.257642 17.099266 -1.491415 4.530241 3.256167 18.615013 30.251229 -32.201750 -5.010422 -0.119288 0.248894 0.000000 0.000000 0.000000 -87.934000 -1.687945 0.366502 16.940338 -21.600151 -13.537610 -4.725250 -0.748802 -6.179229 32.187997 -34.741187 35.656217 -12.882978 1.414363 -2.096139 0.000000 0.000000 0.000000 -86.858279 -6.690119 -4.030168 1.529309 -1.848770 0.802332 -3.081992 -1.381673 -0.154075 0.334289 1.471816 -0.422826 0.000000 0.000000 0.000000 -2.500680 -1.884184 -0.112530 -11.569685 -2.180878 -0.911005 15.248732 -1.066122 2.892290 0.000000 0.000000 0.000000 -1.115100 -1.716037 0.123726 0.993666 -2.344118 -3.769670 -0.624228 3.027873 -3.646862 40.385211 -30.499885 -50.827648 -154.190947 -89.265115 -153.156556 0.000000 0.000000 0.000000 -0.885530 -1.325436 -0.248288 0.916790 -4.966244 13.780923 1.951288 3.757471 0.094289 12.934507 23.804014 62.020037 -177.904544 86.366813 176.386056 0.000000 0.000000 0.000000 
0.133735 35.956238 -1.260141 0.000000 0.000000 0.000000 -86.029074 -6.375600 -2.361712 9.189701 21.175834 16.753269 -1.114656 4.309089 3.450828 18.451333 30.306806 -31.630022 -5.004787 -0.088578 0.112788 0.000000 0.000000 0.000000 -87.605618 -2.181312 0.470014 15.657828 -21.641384 -13.843142 -4.500855 -1.031497 -6.401289 31.715461 -35.394884 35.173739 -12.384560 1.436629 -2.058877 0.000000 0.000000 0.000000 -86.401306 -6.933827 -3.817117 1.521483 -1.900832 0.671685 -3.065663 -1.300816 -0.249329 0.502502 1.268052 -0.363582 0.000000 0.000000 0.000000 -2.337993 -1.881496 -0.192340 -11.404767 -2.180441 -1.001804 15.549554 -1.267487 2.698414 0.000000 0.000000 0.000000 -1.333169 -1.679540 0.025879 1.017709 -3.163891 -3.887265 -0.980556 3.954301 -3.853841 41.323406 -30.539900 -49.064456 -170.243298 -89.461497 -169.308560 0.000000 0.000000 0.000000 -1.022156 -1.289601 -0.279780 1.065454 -5.346122 14.140411 1.717341 4.176836 -0.554078 7.548104 21.856511 66.289035 177.727697 89.088070 -179.286578 0.000000 0.000000 0.000000 
0.248988 35.907364 -1.285723 0.000000 0.000000 0.000000 -85.669847 -7.010868 -2.202144 9.070857 20.061092 16.248778 -0.699335 3.975629 3.686930 18.685635 30.211296 -31.339107 -5.154941 -0.058079 0.066140 0.000000 0.000000 0.000000 -87.356562 -2.708785 0.740300 14.333068 -21.633782 -14.479342 -4.098703 -1.257729 -6.635515 30.776945 -36.079911 34.529147 -11.835198 1.416869 -2.010110 0.000000 0.000000 0.000000 -86.023009 -7.090275 -3.397319 1.646702 -1.977262 0.414872 -2.867640 -1.191028 -0.262837 0.810703 0.876734 -0.396532 0.000000 0.000000 0.000000 -2.041864 -1.814330 -0.210930 -11.066748 -2.111788 -1.360949 16.303952 -1.471822 2.325833 0.000000 0.000000 0.000000 -1.366926 -1.633692 -0.005693 0.976352 -3.602214 -4.631994 -1.348882 4.521043 -3.781633 41.647789 -30.183412 -47.624399 175.545110 -89.830976 176.377478 0.000000 0.000000 0.000000 -1.030393 -1.214795 -0.257653 1.209929 -5.405772 14.771807 1.502666 4.670208 -0.931808 3.435485 20.112662 68.484668 9.774681 89.071691 -11.269512 0.000000 0.000000 0.000000 
0.367316 35.858967 -1.334976 0.000000 0.000000 0.000000 -85.335236 -7.470336 -1.827412 8.702865 19.098800 15.735760 -0.348264 3.646993 3.914750 19.336745 29.983154 -31.290883 -5.378398 -0.034666 0.135571 0.000000 0.000000 0.000000 -87.017307 -3.166376 1.100075 13.191728 -21.508061 -15.274250 -3.590508 -1.294858 -6.839662 29.747086 -36.543209 34.106273 -11.492732 1.364444 -1.979237 0.000000 0.000000 0.000000 -85.704196 -7.163221 -2.905240 1.878039 -2.057334 0.121997 -2.421155 -1.052994 -0.214701 1.171347 0.674332 -0.482163 0.000000 0.000000 0.000000 -1.555851 -1.688237 -0.184179 -10.524690 -2.012728 -1.923925 17.640727 -1.616699 1.792483 0.000000 0.000000 0.000000 -1.091649 -1.581615 0.005367 0.856610 -3.552551 -5.921796 -1.607344 4.551775 -3.294946 41.344993 -29.690183 -46.462659 1.748602 -89.653951 2.468491 0.000000 0.000000 0.000000 -0.810266 -1.118502 -0.221376 1.307017 -5.202084 15.664965 1.410337 5.147965 -0.915896 1.219747 19.249884 67.878727 11.543214 88.960332 -12.853508 0.000000 0.000000 0.000000 
0.455835 35.819420 -1.392817 0.000000 0.000000 0.000000 -84.997162 -7.690252 -1.367908 8.080618 18.436689 15.321269 -0.131389 3.487391 4.141117 20.218202 29.807915 -31.263463 -5.616132 -0.029397 0.329311 0.000000 0.000000 0.000000 -86.543947 -3.479510 1.459758 12.463344 -21.218155 -15.922440 -3.225330 -1.123708 -7.043352 28.781225 -36.729595 33.986205 -11.304408 1.292091 -1.962780 0.000000 0.000000 0.000000 -85.444697 -7.159675 -2.449144 2.196927 -2.101766 -0.068145 -1.663838 -0.902163 -0.150303 1.377282 0.651652 -0.514232 0.000000 0.000000 0.000000 -0.807561 -1.528830 -0.157109 -9.668987 -1.908128 -2.501195 19.518162 -1.708056 1.142758 0.000000 0.000000 0.000000 -0.442155 -1.524617 0.016250 0.706139 -2.958217 -7.430661 -1.599016 3.969989 -2.679875 40.730078 -29.401738 -45.308798 -2.823372 -89.075919 -2.215826 0.000000 0.000000 0.000000 -0.262937 -1.031004 -0.217441 1.353651 -4.918053 16.750248 1.574786 5.480194 -0.886504 0.967819 19.559553 64.451912 171.312141 88.944267 -172.333596 0.000000 0.000000 0.000000 
0.509202 35.819519 -1.476206 0.000000 0.000000 0.000000 -84.677181 -7.692673 -0.957368 7.390235 18.160191 15.045447 -0.039806 3.521858 4.382950 21.120147 29.841151 -31.075916 -5.870634 -0.055578 0.625903 0.000000 0.000000 0.000000 -85.978660 -3.590905 1.761404 12.324270 -20.752101 -16.167439 -3.199720 -0.834613 -7.278779 27.747691 -36.771683 33.958970 -11.080385 1.222049 -1.945042 0.000000 0.000000 0.000000 -85.240112 -7.133610 -2.147423 2.561926 -2.063739 -0.024225 -0.558313 -0.750820 -0.120511 1.491897 0.735924 -0.512103 0.000000 0.000000 0.000000 0.257365 -1.347774 -0.176066 -8.401040 -1.821824 -2.948490 21.744841 -1.821938 0.435823 0.000000 0.000000 0.000000 0.625648 -1.458540 -0.017571 0.570171 -1.868288 -8.709347 -1.290222 3.086615 -2.116268 39.954609 -29.621598 -44.071977 -5.928704 -88.668662 -5.415172 0.000000 0.000000 0.000000 0.719427 -0.972098 -0.285180 1.350901 -4.726960 17.957100 1.841003 5.599591 -0.858131 2.487733 20.824484 58.692560 179.408934 85.197881 179.911677 0.000000 0.000000 0.000000 
0.525961 35.870789 -1.600182 0.000000 0.000000 0.000000 -84.326328 -7.587499 -0.710599 6.762275 18.192364 14.946892 -0.020732 3.669304 4.645992 21.953867 30.085050 -30.793338 -6.209059 -0.114034 0.989318 0.000000 0.000000 0.000000 -85.403394 -3.578655 1.911812 12.667584 -20.235462 -15.928833 -3.457387 -0.571417 -7.532122 26.653005 -36.811086 33.801848 -10.704704 1.181172 -1.906901 0.000000 0.000000 0.000000 -84.988051 -7.126524 -2.029276 2.922672 -1.910270 0.308443 0.941384 -0.613549 -0.135968 1.544195 1.090642 -0.466920 0.000000 0.000000 0.000000 1.648032 -1.185370 -0.264843 -6.754055 -1.778125 -3.161989 24.149167 -1.983402 -0.266748 0.000000 0.000000 0.000000 2.125243 -1.397339 -0.104291 0.467943 -0.459463 -9.396804 -0.680054 2.033812 -1.633274 39.083224 -30.526082 -42.638849 -9.858469 -88.663970 -9.381198 0.000000 0.000000 0.000000 2.150469 -0.940253 -0.427552 1.322333 -4.785803 19.285878 2.161544 5.566811 -0.858940 5.161381 22.789360 51.692514 -179.822133 80.478944 179.455557 0.000000 0.000000 0.000000 
